<svg xmlns="http://www.w3.org/2000/svg" width="64" height="64" viewBox="0 0 64 64" fill="none">
  <!-- Monte Carlo stochastic paths (lighter, background) -->
  <path d="M4 44 L10 40 L16 46 L22 36 L28 42 L34 32 L40 38 L46 30 L52 34 L60 26"
        stroke="#1E293B" stroke-width="1.25" stroke-linecap="round" stroke-linejoin="round" opacity="0.35"/>
  <path d="M4 48 L10 44 L16 50 L22 42 L28 48 L34 40 L40 44 L46 36 L52 40 L60 32"
        stroke="#1E293B" stroke-width="1.25" stroke-linecap="round" stroke-linejoin="round" opacity="0.25"/>
  <path d="M4 40 L10 34 L16 42 L22 30 L28 36 L34 24 L40 32 L46 22 L52 28 L60 18"
        stroke="#1E293B" stroke-width="1.25" stroke-linecap="round" stroke-linejoin="round" opacity="0.3"/>
  <!-- Asian average line (bold, pink) -->
  <path d="M4 42 Q20 32 32 30 T60 24"
        stroke="#E95278" stroke-width="2.5" stroke-linecap="round" fill="none"/>
  <!-- Endpoint dot (strike / payoff) -->
  <circle cx="60" cy="24" r="3" fill="#E95278"/>
  <!-- Asian "A" in monospace, subtle -->
  <text x="6" y="60" font-family="ui-monospace, Menlo, monospace" font-size="8" font-weight="700" fill="#1E293B" opacity="0.6">A̅</text>
</svg>
